# xmcd
#
# Track frame offsets:
#	150
#	15422
#	29772
#	39934
#	57424
#	73787
#	85945
#	103128
#	119885
#	134954
#	150712
#	166277
#	188682
#	208923
#	222931
#	242584
#	259063
#	274472
#
# Disc length: 3913 seconds
#
# Revision: 6
# Processed by: cddbd v1.5.1PL0 Copyright (c) Steve Scherf et al.
# Submitted via: audiograbber 1.83.01
#
DISCID=190f4712
DTITLE=2003-12 Country Radio - 2003-12 Country Radio
DYEAR=2003
DGENRE=Country
TTITLE0=Chad Brock - You Are
TTITLE1=Martina McBride - In My Daughter's Eyes
TTITLE2=Marty Stuart - Too Much Month (at the end of the money)
TTITLE3=Gary Allan - Songs About Rain
TTITLE4=Darryl Worley - I Will Hold My Ground
TTITLE5=Mark Wills - That's A Woman
TTITLE6=Brad Paisley - Little Moments
TTITLE7=LeAnn Rimes - This Love
TTITLE8=Clay Walker - I Can't Sleep
TTITLE9=Carolyn Dawn Johnson - Simple Life
TTITLE10=Cledus T Judd - Martie, Emily and Natalie
TTITLE11=Doug  Adkins - A Losin' Soul
TTITLE12=Donovan Chapman - There Is No War
TTITLE13=Memarie - Leave Me Alone
TTITLE14=Gregory Clutts - Memory Lost In Time
TTITLE15=Mindy Smith - Jolene
TTITLE16=Jerry Burkhart - Dodging Memories
TTITLE17=Kelly Weaver - Just Send Me Roses
EXTD=
EXTT0=
EXTT1=
EXTT2=
EXTT3=
EXTT4=
EXTT5=
EXTT6=
EXTT7=
EXTT8=
EXTT9=
EXTT10=
EXTT11=
EXTT12=
EXTT13=
EXTT14=
EXTT15=
EXTT16=
EXTT17=
PLAYORDER=
